<?xml version="1.0" encoding="UTF-8" standalone="no"?>
<!-- Created with Inkscape (http://www.inkscape.org/) -->

<svg
   width="32.0px"
   height="32.0px"
   viewBox="0 0 32.0 32.0"
   version="1.1"
   id="SVGRoot"
   sodipodi:docname="bord.svg"
   inkscape:version="1.2.2 (732a01da63, 2022-12-09)"
   xmlns:inkscape="http://www.inkscape.org/namespaces/inkscape"
   xmlns:sodipodi="http://sodipodi.sourceforge.net/DTD/sodipodi-0.dtd"
   xmlns="http://www.w3.org/2000/svg"
   xmlns:svg="http://www.w3.org/2000/svg">
  <sodipodi:namedview
     id="namedview545"
     pagecolor="#ffffff"
     bordercolor="#666666"
     borderopacity="1.0"
     inkscape:showpageshadow="2"
     inkscape:pageopacity="0.0"
     inkscape:pagecheckerboard="0"
     inkscape:deskcolor="#d1d1d1"
     inkscape:document-units="px"
     showgrid="true"
     inkscape:zoom="16.871996"
     inkscape:cx="31.590808"
     inkscape:cy="23.530114"
     inkscape:window-width="1920"
     inkscape:window-height="1017"
     inkscape:window-x="-8"
     inkscape:window-y="-8"
     inkscape:window-maximized="1"
     inkscape:current-layer="layer1">
    <inkscape:grid
       type="xygrid"
       id="grid551" />
  </sodipodi:namedview>
  <defs
     id="defs540" />
  <g
     inkscape:label="Taso 1"
     inkscape:groupmode="layer"
     id="layer1">
    <path
       d="m 27.03978,31.942508 c -0.177213,-0.03562 -0.437761,-0.30251 -0.616684,-0.63176 -0.19766,-0.363737 -0.223466,-0.405166 -0.516132,-0.828824 -0.281803,-0.407929 -0.428826,-0.654838 -0.69361,-1.1648 -0.107725,-0.20747 -0.246426,-0.404282 -0.308233,-0.437361 -0.06179,-0.0331 -0.166322,-0.182092 -0.232253,-0.331149 -0.119885,-0.271018 -0.119885,-0.271018 -0.249293,-0.03962 -0.231334,0.41363 -0.990911,0.277315 -0.990911,-0.17783 0,-0.06521 -0.118399,-0.294986 -0.263101,-0.510535 -0.14471,-0.215557 -0.296221,-0.512646 -0.336682,-0.66021 -0.04046,-0.14757 -0.137705,-0.404767 -0.21609,-0.571559 -0.191202,-0.406857 -0.427354,-1.790634 -0.433118,-2.538003 -0.0028,-0.396779 -0.0028,-0.396779 -0.238677,-0.365174 -0.474371,0.0636 -0.612875,-0.23928 -0.905624,-1.980657 -0.122796,-0.730392 -0.03885,-2.410909 0.160102,-3.204664 0.03632,-0.144969 0.0244,-0.163958 -0.102987,-0.163958 -0.07924,0 -0.171714,-0.02763 -0.2055,-0.06143 -0.05988,-0.05988 -0.730349,0.03709 -1.293998,0.187198 -0.125711,0.03345 -0.420838,0.07422 -0.655833,0.09055 -0.607596,0.04222 -0.632244,0.05063 -0.974594,0.33345 -0.390489,0.322567 -0.580905,0.603647 -0.705685,1.041667 -0.05428,0.190445 -0.150011,0.445488 -0.212801,0.566754 -0.06284,0.121267 -0.114164,0.254139 -0.114164,0.295268 0,0.04117 -0.08504,0.16252 -0.188973,0.269749 -0.166749,0.172044 -0.271144,0.374577 -0.390216,0.757037 -0.02798,0.08988 0.06626,0.05876 0.484275,-0.159968 0.285464,-0.149366 0.604698,-0.289888 0.709409,-0.312272 0.104723,-0.02237 0.223424,-0.06725 0.263795,-0.0998 1.093896,-0.880808 3.229403,1.433223 2.550743,2.763979 -0.0897,0.175886 -0.182969,0.360034 -0.207274,0.40922 -0.122101,0.247175 -0.288871,0.136161 -0.508046,-0.338212 -0.118123,-0.255654 -0.253845,-0.4867 -0.301614,-0.513432 -0.04776,-0.02672 -0.08686,-0.09935 -0.08686,-0.161364 0,-0.06206 -0.02707,-0.129506 -0.06017,-0.149961 -0.03878,-0.02399 -0.05771,0.131049 -0.05329,0.435705 0.0035,0.2601 -0.02279,0.528376 -0.05904,0.596165 -0.03625,0.06781 -0.06599,0.187423 -0.06599,0.265843 0,0.342335 -0.780031,0.787501 -1.295532,0.73936 -0.810388,-0.07567 -1.031695,-0.240998 -0.675315,-0.504477 0.199575,-0.147556 0.501392,-0.565008 0.568979,-0.786974 0.04537,-0.149058 0.04537,-0.149058 -0.09617,-0.02308 -0.137816,0.122669 -0.581482,0.382179 -1.12532,0.658225 -0.28946,0.146939 -0.971423,0.196714 -1.045818,0.07634 -0.08323,-0.134668 -0.0378,-0.489057 0.07742,-0.604308 0.115865,-0.115854 0.114637,-0.118825 -0.169036,-0.41006 -0.644838,-0.662034 -0.802717,-0.04256 -0.539455,2.116616 0.250983,2.05846 0.137529,2.507455 -0.737782,2.919851 -0.297511,0.140169 -1.91277,0.196444 -2.050881,0.07146 C 11.77881,28.667097 11.517666,28.59801 10.763047,28.496322 10.402333,28.447726 9.8657387,28.339804 9.5706119,28.256531 9.2754852,28.173257 8.926692,28.079101 8.7955308,28.047293 8.1202019,27.883537 7.1605945,27.491513 7.0678827,27.341509 6.9311606,27.120279 5.9466169,26.673726 5.427568,26.597514 c -0.5929112,-0.08705 -0.7239393,-0.5943 -0.2935209,-1.136329 0.052103,-0.06556 0.1302777,-0.213151 0.173783,-0.327924 0.043477,-0.114766 0.1149134,-0.251032 0.1586992,-0.302798 0.043757,-0.05175 0.079613,-0.175929 0.079613,-0.275905 0,-0.09997 0.0446,-0.218601 0.099122,-0.263599 0.054487,-0.04502 0.1484049,-0.192984 0.2086421,-0.328829 0.060237,-0.135852 0.1497792,-0.262449 0.1989858,-0.281333 0.049227,-0.01886 0.089472,-0.09238 0.089472,-0.163314 0,-0.07094 0.090279,-0.214126 0.2006197,-0.318191 0.1974712,-0.186237 0.2800991,-0.36969 0.3765696,-0.83604 0.035903,-0.173425 0.084227,-0.244644 0.182156,-0.268297 0.076969,-0.01859 0.1903605,-0.137676 0.2682899,-0.281762 0.074241,-0.137255 0.2251003,-0.418966 0.3352312,-0.626031 0.1101304,-0.207056 0.2479048,-0.43013 0.3061574,-0.495718 0.139527,-0.157079 0.1525492,-0.210907 0.2955545,-1.222245 0.1170804,-0.827997 0.1889228,-1.268268 0.3891359,-2.384871 0.049999,-0.278724 0.090847,-0.534434 0.090819,-0.568234 C 8.5867765,16.386938 7.9900505,16.232699 6.6193371,16.00755 5.3871622,15.805149 5.144713,15.638049 4.8944451,14.818704 4.7892726,14.474393 4.6767009,14.123025 4.6442752,14.037895 4.5345726,13.749829 4.6024804,13.247147 4.76031,13.179112 4.8847813,13.125466 4.8947109,13.093195 4.8595781,12.856637 4.796887,12.434528 4.7317479,12.327111 4.4605195,12.198559 3.9241358,11.944335 3.7868246,11.760876 3.2978802,10.645185 3.2476004,10.530412 3.1409202,10.300992 3.0608588,10.13535 2.7238184,9.438086 2.9385754,9.0817757 3.7467834,8.9973034 3.9494227,8.9761294 4.1152256,8.9514462 4.1152256,8.9423953 4.1152256,8.9163769 3.7047015,8.149523 3.4519511,7.7034528 3.3248712,7.4791664 3.220764,7.2645287 3.2205958,7.2264795 3.2204135,7.1884019 3.114855,7.023139 2.9859936,6.8591805 2.0462456,5.6635402 2.028462,5.6358829 2.028462,5.3703628 2.028462,5.0141013 2.3412321,4.805284 2.8780717,4.8031242 3.165064,4.8017181 3.1720835,4.6752237 2.9255464,3.9458427 2.0742186,1.4272796 2.6462187,-0.09049937 4.2514851,0.42752555 c 0.3023286,0.0975631 0.4418977,0.16076819 0.993197,0.44982292 0.1457121,0.0763892 0.5183477,0.38940163 0.8280744,0.69555973 0.678765,0.6709521 1.1145269,1.0233148 1.2655123,1.0233148 0.063252,0 0.1918821,0.1103277 0.2954774,0.2533956 0.1009164,0.1393658 0.3128263,0.4309302 0.4709084,0.647924 0.158089,0.2169939 0.3336322,0.5255356 0.3901036,0.6856513 0.05645,0.1601157 0.1274236,0.3381833 0.1576683,0.3957065 0.4371434,0.8313073 1.0672418,2.1514536 1.0672418,2.236024 0,0.025664 0.079998,0.1936492 0.1777801,0.3733581 0.1937616,0.3561213 0.4760486,0.9453364 0.4814346,1.0049011 0.0021,0.020477 0.164112,0.154351 0.360574,0.2974262 0.521622,0.3798793 1.602559,1.8379892 1.603899,2.1635642 7.01e-4,0.200024 0.131925,0.527583 0.211145,0.527583 0.04762,0 0.08663,-0.03555 0.08663,-0.07904 0,-0.04348 0.187808,-0.27059 0.417354,-0.50473 0.229539,-0.234138 0.417354,-0.452318 0.417354,-0.484841 0,-0.07554 0.732915,-0.6747544 1.221474,-0.9986528 0.379683,-0.2517203 0.707271,-0.3763038 0.991059,-0.3769064 0.08557,-1.82e-4 0.315379,-0.082746 0.510689,-0.1834746 0.32552,-0.1678849 0.40253,-0.182885 0.924531,-0.1800516 0.62653,0.00354 0.666416,0.012832 1.079893,0.2552391 0.157198,0.092163 0.312945,0.1675776 0.3461,0.1675776 0.305043,0 1.13534,0.8846859 1.300792,1.3860007 0.04033,0.122171 0.09642,0.236411 0.124668,0.253865 0.142093,0.08783 0.351297,1.217575 0.40673,2.196488 0.03997,0.706212 0.03997,0.706212 0.189049,0.590253 0.427649,-0.332685 2.065032,-0.787808 3.5553,-0.988204 0.299419,-0.04026 0.587197,-0.108729 0.639502,-0.152136 0.09284,-0.07705 0.214597,-0.07349 0.843229,0.02461 0.236468,0.03689 0.469955,0.122936 0.85635,0.315526 0.478382,0.238444 1.118068,1.285406 1.372472,2.246325 0.274139,1.035448 0.501329,1.981857 0.543874,2.265624 0.02461,0.163958 0.07399,0.378596 0.109804,0.476974 0.03584,0.09837 0.13518,0.487408 0.22083,0.864511 0.08565,0.377109 0.182051,0.79297 0.214217,0.924139 0.316381,1.290069 0.375082,2.806754 0.147682,3.815793 -0.162472,0.720938 -0.705517,2.388363 -0.816784,2.507953 -0.07245,0.07787 -0.114696,0.209287 -0.114979,0.357734 -2.38e-4,0.129051 -0.09416,0.529217 -0.208677,0.889258 -0.114518,0.360035 -0.208214,0.70692 -0.208214,0.770846 0,0.06396 -0.02545,0.198628 -0.05666,0.299334 -0.191006,0.617539 -0.292441,2.175822 -0.20428,3.138214 0.0796,0.868928 6.72e-4,1.047901 -0.424739,0.962461 z m 0.156813,-0.65354 c -0.0082,-0.22111 -0.04411,-0.3665 -0.10138,-0.410047 -0.07814,-0.0594 -0.07755,-0.07178 0.005,-0.10346 0.07603,-0.02917 0.08089,-0.06002 0.02573,-0.163124 -0.05947,-0.111068 -0.03821,-1.217372 0.03065,-1.596402 0.0097,-0.05316 0.04979,-0.338149 0.08922,-0.633276 0.03941,-0.295126 0.08845,-0.603675 0.108977,-0.685651 0.02055,-0.08198 0.04117,-0.202716 0.04593,-0.268297 0.005,-0.06557 0.108635,-0.436827 0.230914,-0.824982 0.122823,-0.389886 0.216524,-0.803475 0.209364,-0.924131 -0.01873,-0.316199 -0.0063,-0.367461 0.08962,-0.367461 0.117615,0 0.1047,0.03142 0.453581,-1.104042 0.633863,-2.063184 0.683617,-3.049164 0.243585,-4.828312 -0.03247,-0.131169 -0.131042,-0.560444 -0.219127,-0.953948 -0.08807,-0.393505 -0.202702,-0.809366 -0.254734,-0.924139 -0.05204,-0.114779 -0.09787,-0.315989 -0.101888,-0.447164 -0.0063,-0.215429 -0.15215,-0.842436 -0.512127,-2.206004 -0.241524,-0.914847 -0.8321,-1.916872 -1.253669,-2.127071 -0.554027,-0.276256 -0.84663,-0.356885 -0.984164,-0.2712 -0.03759,0.02342 -0.08367,0.0021 -0.102479,-0.04657 -0.0392,-0.102065 -0.196497,-0.120159 -0.22782,-0.02623 -0.02301,0.06915 -0.60498,0.179869 -0.957827,0.182275 -0.122971,7.01e-4 -0.223579,0.02384 -0.223579,0.05111 0,0.02728 -0.0872,0.04958 -0.193768,0.04958 -0.442164,6.3e-5 -2.010152,0.442936 -2.727695,0.770418 -0.213144,0.09728 -0.519926,0.209505 -0.681725,0.249391 -0.318612,0.07855 -0.394949,0.148104 -0.562393,0.512444 -0.185236,0.403041 -0.195706,0.454576 -0.246631,1.213823 -0.05512,0.821567 -0.151924,1.087668 -0.684873,1.882433 -0.147871,0.220515 -0.268865,0.424094 -0.268865,0.452397 0,0.346759 -0.907862,0.845254 -1.015391,0.557539 -0.153889,-0.411737 -0.31444,-0.67131 -0.62214,-1.00586 -0.180963,-0.196757 -0.329235,-0.392117 -0.329501,-0.434135 -2.25e-4,-0.04201 -0.04222,-0.0924 -0.0932,-0.111979 -0.05099,-0.01957 -0.192507,-0.231103 -0.26202,-0.382663 -0.06949,-0.15156 -0.130201,-0.272112 -0.187312,-0.355314 -0.122338,-0.178223 -0.455515,-1.200893 -0.427037,-1.383771 0.02406,-0.154337 0.150502,-0.32894 0.181882,-0.182233 0.12316,0.575872 0.870016,2.027467 1.483621,2.790465 0.133763,0.166336 0.230359,0.436119 0.386079,0.556657 0.239097,0.185087 0.583205,-0.0195 0.856433,-0.55334 0.05126,-0.100198 0.14027,-0.262674 0.197758,-0.361044 0.352335,-0.602918 0.486672,-1.036205 0.486672,-1.569679 0,-0.714577 0.152536,-1.203437 0.553046,-1.772478 0.369585,-0.525101 0.460523,-0.695672 0.460523,-0.863824 0,-0.214386 -0.02096,-0.216909 -0.225578,-0.02714 -0.0884,0.08198 -0.189876,0.149049 -0.225485,0.149049 -0.03562,0 -0.12776,0.06704 -0.204779,0.149057 -0.157935,0.168117 -0.596213,0.21848 -0.596213,0.06851 0,-0.379326 0.680671,-1.025784 1.028477,-0.976787 0.206088,0.02903 0.208248,0.110667 -0.02482,-0.940008 -0.03639,-0.163958 -0.115063,-0.39201 -0.174878,-0.506784 -0.05981,-0.114767 -0.168243,-0.336213 -0.240956,-0.4921 -0.173762,-0.3724816 -0.838088,-0.9984427 -1.05964,-0.9984427 -0.03275,0 -0.190787,-0.077382 -0.351198,-0.171966 -0.378492,-0.2231651 -0.461708,-0.2469798 -0.8824,-0.2525049 -0.343408,-0.00425 -0.858326,0.1450945 -0.858326,0.2493773 0,0.027767 -0.100612,0.065708 -0.223586,0.084341 -0.591453,0.08967 -0.813348,0.1664693 -1.188922,0.4114771 -0.223277,0.1456498 -0.487387,0.3436815 -0.586908,0.4400607 -0.09952,0.096381 -0.242653,0.2082635 -0.318065,0.2486205 -0.07541,0.04031 -0.175445,0.165123 -0.222295,0.277259 -0.04684,0.112132 -0.106905,0.203873 -0.133462,0.203873 -0.07315,0 -0.665581,0.611011 -0.665581,0.686465 0,0.269567 -0.582926,0.701464 -0.623402,0.461883 -0.02349,-0.138807 -0.110399,-0.352238 -0.193202,-0.474262 -0.114297,-0.168425 -0.135818,-0.24545 -0.08936,-0.319839 C 12.176046,10.711102 11.103987,9.174915 10.493256,8.7331504 10.162135,8.4936394 9.9811289,8.2503496 9.9233392,7.9671224 9.9138747,7.9206272 9.8559489,7.8133043 9.7946463,7.7286358 9.7333577,7.6439637 9.6478964,7.4874977 9.6047416,7.3809227 9.5616151,7.2743559 9.5027027,7.1871541 9.4738889,7.1871541 c -0.028821,0 -0.052383,-0.067114 -0.052383,-0.1490504 0,-0.081978 -0.02237,-0.1490576 -0.049718,-0.1490576 -0.027349,0 -0.049719,-0.035128 -0.049719,-0.078079 0,-0.1074529 -0.7604181,-1.7356558 -0.8545745,-1.8298121 C 8.3962754,4.909944 8.2886273,4.6771855 8.2886273,4.5944243 c 0,-0.049648 -0.028611,-0.090243 -0.063673,-0.090243 -0.036534,0 -0.047475,-0.050841 -0.025806,-0.11924 0.021669,-0.068442 0.010729,-0.1192471 -0.025806,-0.1192471 -0.034993,0 -0.063673,-0.052103 -0.063673,-0.1157193 0,-0.1059027 -0.081323,-0.1977026 -0.1937686,-0.2187399 -0.024614,-0.0049 -0.064865,-0.012131 -0.089437,-0.01676 -0.024614,-0.0049 -0.0049,-0.033309 0.043057,-0.063883 0.07518,-0.047544 0.073042,-0.061149 -0.014867,-0.0949 -0.05645,-0.021669 -0.1026699,-0.064514 -0.1026699,-0.09516 0,-0.030644 -0.027559,-0.08816 -0.061219,-0.1277672 C 7.6571057,3.49314 7.5458737,3.3312013 7.4435619,3.1728738 7.3059702,2.9599331 7.2287839,2.8925152 7.1470256,2.9138963 c -0.060798,0.015918 -0.1105309,0.0049 -0.1105309,-0.025105 0,-0.029733 -0.053645,-0.054067 -0.1192471,-0.054067 -0.066268,0 -0.11924,-0.03976 -0.11924,-0.08943 0,-0.049157 -0.025806,-0.08943 -0.057362,-0.08943 -0.031556,0 -0.3623483,-0.3018378 -0.7350892,-0.6707497 C 5.6328225,1.6162096 5.2092483,1.2518634 5.0642795,1.1754695 4.5224401,0.88991458 4.3759076,0.82364682 4.0852407,0.73271594 3.7019111,0.61278908 3.2114661,0.55323861 3.1179407,0.61525504 2.8406046,0.79917039 2.9001615,2.7565677 3.2141521,3.7773236 3.5885267,4.9944078 3.5752802,5.1843616 3.1186213,5.1464943 2.7547232,5.1163404 2.366001,5.2196625 2.3386805,5.3538529 2.3229726,5.4309758 2.5269442,5.7172111 3.2839262,6.6803247 3.4127943,6.8442831 3.518367,7.0095673 3.5185354,7.0476237 3.5187107,7.085706 3.622811,7.3003176 3.7498907,7.5245981 3.8769708,7.7488774 4.0748836,8.1094733 4.1896988,8.3259129 4.3045141,8.5423595 4.4621262,8.7924658 4.5399576,8.881707 4.8046642,9.1852349 4.8201338,9.4715259 4.5644317,9.3346776 4.3978225,9.2455038 3.7377177,9.2804667 3.4140081,9.3956117 3.2366067,9.4587199 3.1278994,9.810441 3.2857992,9.810441 c 0.021808,0 0.074024,0.087189 0.1159721,0.193769 0.5077167,1.289894 0.744682,1.659458 1.2154501,1.895589 0.5467692,0.274251 0.6255053,0.355554 0.5144208,0.531152 -0.030154,0.04762 -0.037236,0.114696 -0.015708,0.149051 0.021459,0.03436 0.046844,0.116125 0.05638,0.181714 0.027068,0.186538 0.074872,0.28885 0.1157831,0.247947 0.034221,-0.03422 0.1919313,0.127184 0.1963631,0.200998 0.00141,0.01739 -0.1322551,0.08364 -0.2962136,0.147277 -0.3418088,0.13264 -0.3543822,0.178831 -0.1866439,0.685643 0.059676,0.18036 0.1730606,0.53893 0.25193,0.796835 0.1438678,0.470473 0.2208576,0.557498 0.5309351,0.600112 0.049157,0.007 0.169919,0.04657 0.268297,0.08839 0.098371,0.04186 0.3935047,0.114141 0.6558341,0.160621 1.4060352,0.249133 1.6806434,0.305611 1.799638,0.370161 0.071625,0.03885 0.2009984,0.07065 0.2874973,0.07065 0.1713777,0 0.1758867,0.235907 0.018232,0.953941 -0.032398,0.147571 -0.070125,0.375623 -0.083806,0.506792 -0.022439,0.215184 -0.069634,0.502197 -0.1224377,0.745271 -0.010658,0.04915 -0.087025,0.545534 -0.1696316,1.102998 -0.217085,1.46494 -0.2162084,1.460732 -0.3056244,1.460732 -0.044459,0 -0.1784252,0.194519 -0.2976443,0.432263 -0.119219,0.237737 -0.2402893,0.441197 -0.2690474,0.452129 -0.028751,0.01099 -0.052313,0.07288 -0.052313,0.137668 0,0.06831 -0.026718,0.101262 -0.063603,0.07848 -0.034993,-0.0216 -0.058905,-0.0028 -0.053155,0.04117 C 7.428471,22.286235 7.1917155,22.54292 7.086893,22.37772 7.060175,22.33564 7.037876,22.3191 7.037385,22.34104 c -4.769e-4,0.02188 -0.017321,0.08258 -0.037377,0.134829 -0.027559,0.07173 -0.010941,0.08519 0.06774,0.05498 0.1205865,-0.04628 0.1224588,-0.05238 -0.1458242,0.473546 -0.1121722,0.219883 -0.2281157,0.399788 -0.2576523,0.399788 -0.083975,0 -0.1924431,0.137142 -0.2122113,0.268296 -0.00989,0.06557 -0.081947,0.176855 -0.1601507,0.247267 -0.078203,0.07041 -0.129857,0.14034 -0.114787,0.155417 0.015077,0.01508 -0.035764,0.138616 -0.1129851,0.274552 -0.077214,0.135937 -0.1583345,0.22921 -0.1802625,0.207282 -0.021949,-0.02195 -0.039901,0.08533 -0.039901,0.238361 0,0.173874 -0.024964,0.272645 -0.066548,0.263325 -0.036605,-0.0082 -0.1102226,0.105835 -0.163643,0.253396 -0.053435,0.147563 -0.1376898,0.308542 -0.187282,0.357727 -0.3378608,0.335133 -0.275527,0.567266 0.1689233,0.629096 0.5282143,0.07348 1.3931042,0.464393 1.6946474,0.765937 0.1883549,0.188355 1.001633,0.518831 1.6840092,0.684297 0.1311683,0.03177 0.4799544,0.125959 0.7750813,0.209238 0.2951269,0.08328 0.8317209,0.191357 1.1924349,0.240184 0.778413,0.105374 1.107718,0.19109 1.202709,0.313079 0.290085,0.372531 2.15414,-0.164204 2.348848,-0.676325 0.05,-0.131518 0.02153,-1.539306 -0.03296,-1.627405 -0.01479,-0.02392 -0.04165,-0.215139 -0.05967,-0.424938 -0.01802,-0.209799 -0.06143,-0.579027 -0.09648,-0.820509 -0.128111,-0.88336 -0.03247,-1.408699 0.324334,-1.781538 0.169323,-0.176931 0.316809,-0.34664 0.327734,-0.377131 0.04229,-0.118052 0.18006,-0.04705 0.23949,0.12342 0.03429,0.09838 0.04846,0.178867 0.03142,0.178867 -0.01704,0 0.0043,0.03584 0.04782,0.07959 0.04334,0.04375 0.132108,0.15109 0.197276,0.238487 0.06514,0.08739 0.153208,0.158895 0.19564,0.158895 0.04243,0 0.09259,0.04026 0.11147,0.08943 0.0956,0.249153 0.387958,0.04867 1.005995,-0.689908 0.264126,-0.315638 0.655793,-0.544588 0.594813,-0.347699 -0.108375,0.349902 -0.290541,0.601159 -0.619243,0.854091 -0.194449,0.149618 -0.36256,0.292827 -0.373568,0.318233 -0.03065,0.07071 -0.564287,0.493215 -0.591931,0.468671 -0.01339,-0.01185 -0.07595,0.02861 -0.139085,0.08995 -0.149183,0.145004 0.177282,0.16454 0.43349,0.02595 0.08704,-0.04712 0.346066,-0.174386 0.575605,-0.282891 0.473433,-0.223789 0.851804,-0.577238 1.044865,-0.976051 0.198579,-0.410215 0.321452,-0.345231 0.345133,0.182541 0.03156,0.703848 -0.01388,0.856034 -0.371016,1.242876 -0.175529,0.190115 -0.288802,0.354726 -0.251713,0.365805 0.397999,0.118834 0.879097,-0.01283 1.065187,-0.291627 0.02413,-0.03611 0.04425,-0.04222 0.04474,-0.0136 0.0021,0.132242 0.180024,-0.115026 0.18189,-0.253087 0.0014,-0.08616 0.03933,-0.223732 0.08485,-0.305715 0.07139,-0.12863 0.07046,-0.162661 -0.007,-0.248431 -0.06599,-0.07322 -0.07374,-0.129015 -0.02932,-0.211994 0.05954,-0.111199 0.06704,-0.664565 0.0091,-0.660407 -0.127396,0.0091 -0.179023,-0.02875 -0.179023,-0.131224 0,-0.06746 0.03976,-0.11924 0.09154,-0.11924 0.05035,0 0.153946,-0.04088 0.230235,-0.09089 0.189673,-0.124275 0.498341,0.214259 0.794456,0.871314 0.116893,0.259398 0.232906,0.47163 0.257792,0.47163 0.171645,0 0.249035,-1.117345 0.08672,-1.252055 -0.04915,-0.04081 -0.08943,-0.120236 -0.08943,-0.176469 0,-0.480102 -1.521284,-1.15975 -2.088194,-0.932918 -0.134702,0.05393 -0.266936,0.08439 -0.29385,0.06774 -0.02693,-0.01663 -0.0821,0.0098 -0.122613,0.05856 -0.04053,0.04881 -0.09915,0.08877 -0.130292,0.08877 -0.03113,0 -0.18212,0.07368 -0.335518,0.163749 -0.153414,0.09006 -0.292345,0.163931 -0.30874,0.164154 -0.01641,2.39e-4 -0.129149,0.07632 -0.250555,0.169093 -0.49595,0.378967 -0.683533,-0.300372 -0.261004,-0.945226 0.06248,-0.09539 0.06837,-0.149954 0.02132,-0.197042 -0.06837,-0.06837 0.0331,-0.249048 0.139836,-0.249048 0.07969,0 0.290807,-0.228431 0.290807,-0.314657 0,-0.04186 0.03584,-0.129085 0.07969,-0.193769 0.04383,-0.06466 0.126442,-0.265169 0.183587,-0.445523 0.306732,-0.968071 1.145647,-1.717627 1.922573,-1.717789 0.224231,-4.8e-5 0.519294,-0.04081 0.655694,-0.09056 0.136407,-0.04972 0.258985,-0.07948 0.272414,-0.06606 0.0134,0.01339 0.210366,-0.01501 0.437648,-0.06311 0.479218,-0.10151 0.920022,-0.11589 0.920022,-0.03001 0,0.03282 0.0772,0.05961 0.171567,0.05961 0.266375,0 0.43323,0.604973 0.211096,0.765369 -0.03008,0.02174 -0.05842,0.06633 -0.0629,0.09915 -0.219314,1.599791 -0.204988,2.115116 0.10073,3.624171 0.183958,0.907975 0.494723,1.192997 0.545171,0.499996 0.01606,-0.220338 0.03646,-0.25087 0.178684,-0.267294 0.19926,-0.02301 0.208937,0.0265 0.25125,1.284958 0.01711,0.508572 0.06072,0.965055 0.09908,1.036716 0.07529,0.140685 0.117685,0.379326 0.128377,0.72267 0.0035,0.12297 0.03149,0.223585 0.06143,0.223585 0.02994,0 0.04215,0.03352 0.02707,0.07452 -0.01508,0.04102 0.03324,0.195262 0.107334,0.342826 0.07412,0.147563 0.166898,0.38903 0.206196,0.536593 0.06086,0.228635 0.306816,0.676943 0.425201,0.775082 0.07042,0.05842 0.173053,0.291943 0.173053,0.393835 0,0.302433 0.309993,0.401947 0.420566,0.135003 0.0425,-0.102644 0.153089,-0.269601 0.245718,-0.371016 0.09262,-0.101415 0.169371,-0.238781 0.170535,-0.305252 0.0028,-0.165326 0.118469,0.03759 0.32662,0.573479 0.08992,0.231489 0.196118,0.407565 0.255416,0.42349 0.08791,0.02363 0.190493,0.194947 0.661998,1.105691 0.04593,0.08875 0.119723,0.182801 0.163958,0.209022 0.04425,0.02623 0.08043,0.07345 0.08043,0.104948 0,0.03149 0.08948,0.184576 0.198839,0.34016 0.109355,0.155593 0.210402,0.309587 0.224525,0.342217 0.01417,0.03261 0.09229,0.166644 0.173707,0.297812 0.08141,0.131168 0.14837,0.251901 0.148811,0.268297 0.0014,0.05414 0.355231,0.409304 0.381541,0.382993 0.01417,-0.01417 0.02012,-0.179932 0.01312,-0.368344 z M 12.247412,23.379821 c -0.01774,-0.04621 0.01564,-0.173671 0.07421,-0.283205 0.255541,-0.478013 0.349704,-1.237021 0.201741,-1.626192 -0.08376,-0.220296 -0.140971,-0.19386 -0.411015,0.18989 -0.30114,0.427944 -0.848491,1.241236 -0.98663,1.465986 -0.119885,0.195052 -0.35873,0.18421 -0.504084,-0.02286 -0.04502,-0.06409 -0.125481,-0.117655 -0.178867,-0.119016 -0.39732,-0.01017 -0.563901,-0.391702 -0.512724,-1.17435 0.066057,-1.010034 0.062972,-1.184399 -0.026998,-1.535954 -0.203502,-0.794878 -0.1275148,-1.667236 0.123377,-1.416351 0.103287,0.103282 0.255023,1.554629 0.257407,2.462085 0.0035,1.232286 0.582007,2.011344 0.904805,1.217925 0.07954,-0.195515 0.218866,-0.449457 0.3096,-0.5643 0.09074,-0.11485 0.29282,-0.40281 0.449079,-0.63991 0.352811,-0.535345 0.350189,-0.533866 0.603711,-0.34049 0.310778,0.237043 0.456462,1.326192 0.246761,1.844771 -0.05498,0.136013 0.237716,-0.183587 0.473167,-0.516616 0.125958,-0.178166 0.161889,-0.314621 0.194603,-0.739002 0.06767,-0.877498 0.50658,-0.769787 0.792864,0.194554 0.168496,0.567582 0.190662,0.572982 0.374768,0.09118 0.305337,-0.799057 0.107216,-1.291522 -0.665441,-1.654045 -0.5052,-0.237043 -0.19919,-0.565836 0.526636,-0.565836 0.296543,0 0.373224,-0.07496 0.226635,-0.221546 -0.0366,-0.03661 -0.09746,-0.128573 -0.135269,-0.204413 -0.248326,-0.498088 -1.121967,-0.313653 -1.548936,0.326999 -0.112767,0.169196 -0.386569,0.48203 -0.608451,0.695174 -0.673533,0.647034 -1.058209,1.04058 -1.287145,1.316829 -0.2935,0.354152 -0.455096,0.260359 -0.243221,-0.141182 0.130776,-0.247848 0.131379,-0.259784 0.04137,-0.820256 -0.133237,-0.829834 -0.09947,-1.816117 0.0622,-1.816117 0.111169,0 0.122234,0.05448 0.16351,0.804891 0.07983,1.451456 0.03836,1.41018 0.735895,0.732909 0.330715,-0.321122 0.708989,-0.731421 0.840606,-0.911775 0.560591,-0.768181 0.807051,-0.87449 1.592427,-0.68692 0.390194,0.09319 0.392768,0.09496 0.56463,0.388813 0.406954,0.695804 0.546117,1.401112 0.276452,1.401112 -0.08832,0 -0.124402,-0.04635 -0.139142,-0.178867 -0.03183,-0.286586 -0.165115,-0.387572 -0.511033,-0.38732 -0.303773,2.24e-4 -0.303773,2.24e-4 -0.124914,0.115523 0.689607,0.444534 0.855943,1.117233 0.496427,2.007641 -0.387986,0.960905 -0.695461,1.172737 -0.769008,0.529778 -0.08373,-0.731912 -0.315267,-1.229229 -0.36636,-0.78689 -0.09656,0.835949 -1.311513,2.094029 -1.51362,1.567357 z m 3.522524,-11.145232 c -0.111234,-0.240767 -0.241012,-0.46992 -0.288373,-0.509232 -0.236861,-0.196573 -0.08114,-0.722425 0.213928,-0.722425 0.40854,0 0.819871,1.150712 0.549379,1.536896 -0.1575,0.224862 -0.260633,0.158573 -0.474934,-0.305239 z"
       style="fill:#000000;stroke-width:0.0596216"
       id="path472" />
    <path
       style="fill:#f9f9f9;stroke-width:0.0592698"
       d="m 26.988057,31.433254 c -0.07034,-0.07634 -0.228534,-0.312159 -0.351553,-0.524049 -0.12302,-0.211889 -0.363912,-0.589415 -0.535316,-0.838947 -0.171403,-0.249531 -0.405507,-0.640083 -0.520231,-0.867894 -0.114723,-0.22781 -0.287432,-0.500524 -0.383797,-0.60603 -0.09636,-0.105506 -0.254594,-0.380772 -0.351621,-0.611703 -0.159972,-0.380747 -0.307838,-0.570612 -0.307838,-0.395278 0,0.08361 -0.527049,0.83052 -0.586047,0.83052 -0.08547,0 -0.184461,-0.145927 -0.184461,-0.271917 0,-0.07132 -0.09727,-0.271081 -0.216164,-0.443917 -0.217352,-0.315974 -0.671242,-1.360884 -0.67231,-1.547738 -2.96e-4,-0.05512 -0.02724,-0.116708 -0.05984,-0.136855 -0.0326,-0.02015 -0.05927,-0.136138 -0.05927,-0.257759 0,-0.121621 -0.0413,-0.379673 -0.09177,-0.573449 -0.05047,-0.193775 -0.114821,-0.80249 -0.142996,-1.352699 -0.02818,-0.550209 -0.07716,-1.026305 -0.108841,-1.057991 -0.03169,-0.03169 -0.120699,-0.04869 -0.197805,-0.03778 -0.115809,0.01639 -0.146068,0.06385 -0.173969,0.27291 -0.09026,0.676329 -0.341065,0.263214 -0.56402,-0.929047 -0.217973,-1.165621 -0.180067,-2.821618 0.07565,-3.305035 0.08538,-0.1614 0.08895,-0.222329 0.02544,-0.434299 -0.130717,-0.436296 -0.55899,-0.523667 -1.607375,-0.327919 -0.277087,0.05174 -0.75848,0.130004 -1.069764,0.173929 -1.128573,0.159254 -1.548024,0.563007 -2.19162,2.1096 -0.07461,0.179291 -0.224806,0.408824 -0.333769,0.510074 -0.108963,0.10125 -0.198115,0.237885 -0.198115,0.303633 0,0.06575 -0.05479,0.243394 -0.121747,0.39477 -0.149536,0.338052 -0.139635,0.790673 0.01946,0.88953 0.08276,0.05143 0.158494,0.0353 0.355619,-0.07572 0.137756,-0.07758 0.423828,-0.233325 0.635718,-0.346092 0.21189,-0.112767 0.411925,-0.224306 0.444524,-0.247863 0.0326,-0.02356 0.19346,-0.07549 0.357472,-0.115404 0.457873,-0.111431 1.045023,0.03798 1.644588,0.418493 0.396315,0.251522 0.576506,0.639234 0.575269,1.237787 -8.06e-4,0.390806 -0.06465,0.663217 -0.137155,0.585263 -0.01428,-0.01535 -0.132708,-0.24129 -0.263169,-0.502077 -0.241866,-0.483486 -0.497512,-0.800143 -0.645976,-0.800143 -0.0455,0 -0.178129,0.03986 -0.294732,0.08858 -0.152883,0.06388 -0.201938,0.114817 -0.175906,0.182657 0.01985,0.05174 0.0361,0.10523 0.0361,0.118863 0,0.01363 0.04388,0.02479 0.0975,0.02479 0.08426,0 0.0929,0.05483 0.06366,0.403674 -0.01861,0.222021 -0.01344,0.436687 0.0115,0.477036 0.05411,0.08756 -0.162431,0.792161 -0.230518,0.75008 -0.02599,-0.01606 -0.08361,0.01465 -0.12805,0.06823 -0.118826,0.143283 -0.428926,0.256881 -0.701232,0.256881 -0.131441,0 -0.238983,-0.01522 -0.238983,-0.03382 0,-0.0186 0.104982,-0.158626 0.233293,-0.311167 0.128312,-0.152541 0.261669,-0.35243 0.296349,-0.444198 0.07596,-0.200985 0.08251,-1.103493 0.0089,-1.219809 -0.07921,-0.125089 -0.223358,-0.03801 -0.35293,0.213193 -0.199888,0.38753 -0.593911,0.723584 -1.213636,1.035088 -0.320947,0.161323 -0.641004,0.285125 -0.711238,0.275117 -0.111847,-0.01594 -0.100867,-0.03406 0.08846,-0.145956 0.307886,-0.181971 1.342647,-1.129022 1.437554,-1.315701 0.16515,-0.324846 0.173009,-0.423541 0.03373,-0.423541 -0.08423,0 -0.327871,0.203539 -0.709485,0.592698 -0.319664,0.325984 -0.609214,0.592699 -0.643445,0.592699 -0.123861,0 -0.663026,-0.556291 -0.708225,-0.730721 -0.08383,-0.323519 -0.211138,-0.33328 -0.482698,-0.03701 -0.553148,0.603477 -0.619581,1.001059 -0.42309,2.532063 0.06806,0.530303 0.123744,1.279122 0.123744,1.66404 0,0.64941 -0.0096,0.708894 -0.133531,0.825298 -0.282703,0.265586 -1.244298,0.606455 -1.710815,0.606455 -0.120537,0 -0.348308,-0.06619 -0.506158,-0.147098 -0.19112,-0.09795 -0.544417,-0.18765 -1.05751,-0.268481 C 9.403023,27.922041 7.7205167,27.385826 7.2072672,26.956206 6.8846566,26.686161 6.3521013,26.456244 5.5330431,26.233403 5.3978733,26.196627 5.2733682,26.130285 5.2563652,26.085975 c -0.017003,-0.04431 0.060251,-0.208788 0.1716761,-0.365509 0.1114248,-0.156722 0.2025906,-0.316664 0.2025906,-0.355427 0,-0.03876 0.053343,-0.138294 0.1185396,-0.221178 0.068573,-0.08718 0.1185396,-0.240445 0.1185396,-0.363612 0,-0.117102 0.026222,-0.212913 0.058271,-0.212913 0.032049,0 0.1269239,-0.126689 0.2108327,-0.281532 0.3013961,-0.556186 0.4661727,-0.81612 0.5607796,-0.884624 0.052915,-0.03832 0.186229,-0.24702 0.2962539,-0.463786 0.1664509,-0.327935 0.1857356,-0.403176 0.1148345,-0.448039 -0.067331,-0.0426 -0.059716,-0.05411 0.036292,-0.05483 0.1601616,-0.0012 0.2637506,-0.110961 0.2637506,-0.279475 0,-0.07498 0.020347,-0.136321 0.045215,-0.136321 0.024868,0 0.071543,-0.04977 0.1037222,-0.110612 0.032179,-0.06084 0.1347194,-0.254204 0.2278682,-0.429706 C 7.8786798,21.302909 8.0205332,21.08927 8.1007613,21.003657 8.224463,20.871659 8.2685408,20.709522 8.3907919,19.936806 8.4700801,19.435647 8.6300475,18.44547 8.7462756,17.736413 8.8625043,17.027356 8.9491639,16.374855 8.9388533,16.286411 8.9170717,16.099576 8.9368144,16.106198 7.6161705,15.842798 6.4950872,15.6192 5.6295665,15.388538 5.503542,15.27978 5.4002048,15.190601 4.9789523,13.949544 4.9601481,13.67888 c -0.00949,-0.136539 0.030231,-0.179939 0.2704126,-0.295486 0.1548423,-0.07449 0.2815315,-0.160435 0.2815315,-0.190984 0,-0.03055 -0.069561,-0.11026 -0.1545797,-0.177136 C 5.2257837,12.911656 5.2014051,12.843117 5.1925988,12.551631 5.1822701,12.209755 5.1821148,12.209485 4.8878375,12.021899 4.2058951,11.587196 4.1752531,11.555988 3.9011714,11.017015 3.7539828,10.727572 3.5730433,10.337396 3.4990837,10.149955 3.425124,9.962514 3.3410378,9.8091534 3.3122255,9.8091534 c -0.099694,0 -0.05188,-0.2191649 0.072347,-0.3316152 C 3.4894304,9.38262 3.6098381,9.3634041 4.1402621,9.3569366 4.7578675,9.349407 4.7708916,9.3464192 4.7557172,9.2157702 4.7471908,9.1423592 4.6509313,8.9591212 4.5418071,8.8085741 4.3328298,8.520271 3.6567255,7.3175395 3.5586986,7.0597093 3.5270618,6.9764981 3.2468406,6.57403 2.9359848,6.1653352 2.625129,5.7566404 2.3707924,5.4000736 2.3707924,5.3729645 c 0,-0.09729 0.3081647,-0.1868562 0.6429027,-0.1868562 0.5650046,0 0.5840381,-0.086092 0.2794756,-1.2641256 C 3.0521935,2.9898944 2.9358078,2.0253979 2.9828231,1.3501096 3.0235172,0.76561378 3.0874342,0.62201701 3.3063772,0.62320907 c 0.2996472,0.001631 0.9276011,0.18108208 1.3579002,0.38804763 0.47373,0.2278549 0.7109019,0.4169735 1.598971,1.2750041 0.3947423,0.3813902 0.670504,0.6000828 0.7985007,0.63325 0.1509074,0.039104 0.259955,0.1445667 0.477922,0.4622105 0.1553216,0.2263506 0.2712595,0.4422577 0.2576397,0.4797935 -0.01362,0.037536 0.023055,0.080752 0.081499,0.096035 0.1002627,0.026219 0.3004235,0.3449388 0.3004235,0.4783696 0,0.033757 0.1843569,0.4237584 0.4096824,0.8666694 0.2253248,0.442911 0.5040257,1.0332035 0.6193351,1.3117609 0.1153094,0.278558 0.3164071,0.6948591 0.4468837,0.9251134 0.1304771,0.2302549 0.2552762,0.4905424 0.2773311,0.578417 0.022966,0.091503 0.3227404,0.442653 0.7015654,0.8218002 0.818152,0.8188504 1.460077,1.7641867 1.365435,2.0108197 -0.04487,0.116931 0.323458,0.873827 0.425231,0.873827 0.165188,0 0.37365,-0.190893 0.550325,-0.503945 0.09817,-0.173947 0.301733,-0.418437 0.452362,-0.543312 0.15063,-0.124874 0.310901,-0.297627 0.356159,-0.383895 0.09129,-0.174018 0.835915,-0.794076 1.233193,-1.0268967 0.140542,-0.082363 0.439914,-0.1922914 0.665274,-0.2442858 0.225358,-0.051995 0.554601,-0.1643214 0.731649,-0.249616 0.253712,-0.1222274 0.410663,-0.1551008 0.740873,-0.1551749 0.391544,-5.93e-5 0.458974,0.020778 1.030207,0.318804 0.713928,0.3724722 0.975985,0.634491 1.322475,1.3222854 0.204482,0.405902 0.46513,1.26256 0.466296,1.532548 2.97e-4,0.06559 -0.07107,0.107579 -0.224551,0.132121 -0.133884,0.02141 -0.323747,0.120526 -0.468948,0.244812 -0.259902,0.222467 -0.528111,0.694002 -0.458664,0.806371 0.05905,0.09555 0.483773,0.02846 0.624159,-0.09859 0.06289,-0.05692 0.164256,-0.132523 0.225256,-0.168015 0.061,-0.03549 0.167502,-0.09881 0.236671,-0.140704 0.23721,-0.143676 0.14454,0.154905 -0.225248,0.725738 -0.431932,0.666762 -0.575754,1.082225 -0.626618,1.810131 -0.04813,0.688831 -0.1435,1.008938 -0.49386,1.657701 -0.457063,0.846345 -0.789823,1.116337 -1.03795,0.84216 -0.05376,-0.05941 -0.323778,-0.448617 -0.600036,-0.864913 -0.510634,-0.769478 -1.029236,-1.756702 -1.162429,-2.212829 -0.0748,-0.256158 -0.190779,-0.327833 -0.255896,-0.158144 -0.06522,0.169969 -0.0379,0.368205 0.11942,0.866323 0.247926,0.785015 0.433991,1.107516 1.165489,2.020107 0.188614,0.235307 0.409434,0.567857 0.490713,0.738998 0.120619,0.253979 0.175232,0.311167 0.29716,0.311167 0.269393,0 0.854733,-0.385255 0.854733,-0.562563 0,-0.03642 0.151601,-0.304817 0.336892,-0.596426 0.460822,-0.72524 0.551003,-0.992678 0.642915,-1.906612 0.06969,-0.692985 0.101593,-0.826046 0.27556,-1.149378 l 0.196743,-0.365664 0.563063,-0.206224 c 1.433442,-0.525003 1.691895,-0.609359 2.292692,-0.748306 0.726038,-0.167911 1.100566,-0.239661 1.734599,-0.332308 0.242807,-0.03548 0.477312,-0.09426 0.521123,-0.130616 0.05876,-0.04876 0.09765,-0.04811 0.148267,0.0025 0.03774,0.03774 0.176631,0.06924 0.308655,0.07001 0.37993,0.0022 0.965594,0.32464 1.235542,0.680203 0.502463,0.661821 0.922702,1.823412 1.232569,3.406961 0.06709,0.342863 0.18648,0.850093 0.26531,1.12718 0.07883,0.277086 0.256803,0.997214 0.395495,1.600284 0.247018,1.074104 0.252084,1.11767 0.248075,2.133714 -0.0039,0.996134 -0.01253,1.068917 -0.217107,1.837364 -0.347368,1.304816 -0.570305,1.947248 -0.699776,2.016539 -0.09058,0.04848 -0.115988,0.124837 -0.115988,0.348631 0,0.157605 -0.08066,0.558075 -0.179249,0.889932 -0.356278,1.199275 -0.548683,2.497551 -0.521164,3.516603 0.01158,0.428701 -0.004,0.704166 -0.04046,0.716356 -0.03665,0.01225 -0.02949,0.07574 0.01878,0.166367 0.04293,0.08061 0.0696,0.260784 0.05927,0.40039 l -0.01878,0.253833 z M 12.842458,23.329685 c 0.390963,-0.283212 0.801368,-0.908653 0.93801,-1.429491 l 0.06997,-0.266714 0.09751,0.325984 c 0.05363,0.179291 0.126731,0.480902 0.162443,0.670248 0.06082,0.322485 0.07469,0.343107 0.219286,0.325984 0.191273,-0.02265 0.430421,-0.408009 0.639229,-1.030038 0.24935,-0.742801 0.175147,-1.196653 -0.268225,-1.640566 l -0.281189,-0.281531 h 0.189791 c 0.212452,0 0.350485,0.125086 0.408776,0.370436 0.05074,0.213557 0.255946,0.224119 0.308214,0.01586 0.09093,-0.362285 -0.393423,-1.473233 -0.707225,-1.622149 -0.09282,-0.04405 -0.374199,-0.09417 -0.625288,-0.111378 -0.584886,-0.04009 -0.726351,0.0309 -1.170245,0.587238 -0.71518,0.896345 -1.395947,1.542705 -1.50742,1.431232 -0.03001,-0.03001 -0.08115,-0.449008 -0.113645,-0.931098 -0.03249,-0.48209 -0.07413,-0.900892 -0.09254,-0.93067 -0.06191,-0.100168 -0.190151,-0.05525 -0.226188,0.07922 -0.0597,0.222763 -0.04173,1.229271 0.03127,1.751695 0.0601,0.430061 0.05636,0.518251 -0.02956,0.698431 -0.121798,0.255411 -0.126321,0.439277 -0.01081,0.439277 0.09801,0 1.837867,-1.754551 2.217865,-2.236595 0.290198,-0.36813 0.612425,-0.549086 0.977747,-0.549086 0.242531,0 0.283825,0.02284 0.484893,0.268219 0.120882,0.147521 0.20549,0.282515 0.188018,0.299987 -0.01747,0.01747 -0.187937,0.04715 -0.37881,0.06595 -0.421683,0.04154 -0.673025,0.158394 -0.673025,0.312912 0,0.118728 0.08124,0.189751 0.539704,0.471814 0.347587,0.213849 0.558685,0.60936 0.501195,0.939038 -0.05159,0.29583 -0.224149,0.783376 -0.277267,0.783376 -0.0235,0 -0.09995,-0.171947 -0.169886,-0.382104 -0.217999,-0.65509 -0.511343,-0.956508 -0.704444,-0.723837 -0.03888,0.04685 -0.108358,0.317869 -0.154397,0.602272 -0.05963,0.36835 -0.129363,0.582976 -0.242425,0.746125 -0.268772,0.387839 -0.30566,0.389849 -0.274571,0.01496 0.01519,-0.18323 -0.0057,-0.519913 -0.04654,-0.748184 -0.05895,-0.329862 -0.114686,-0.458932 -0.271582,-0.628922 -0.163957,-0.177638 -0.215522,-0.202917 -0.304287,-0.149165 -0.150342,0.09104 -0.814469,1.043737 -1.056187,1.515111 -0.111245,0.216939 -0.236545,0.406703 -0.278444,0.421697 -0.323194,0.115662 -0.639014,-0.662094 -0.639447,-1.574738 -2.37e-4,-0.52618 -0.101128,-1.684027 -0.182617,-2.096023 -0.06494,-0.328298 -0.1924209,-0.441865 -0.2904348,-0.258724 -0.090251,0.168637 -0.072456,0.948962 0.031904,1.398954 0.072899,0.314333 0.08347,0.574101 0.05075,1.247119 -0.035012,0.72016 -0.026203,0.88969 0.057633,1.109211 0.09269,0.242706 0.2744068,0.395292 0.4707588,0.395292 0.04012,0 0.118617,0.05334 0.17444,0.118539 0.05915,0.06908 0.174843,0.11854 0.277289,0.11854 0.160005,0 0.224601,-0.07319 0.719244,-0.81496 0.815832,-1.223423 0.862537,-1.256192 0.925191,-0.64913 0.03669,0.355448 -0.03114,0.716829 -0.227368,1.211506 -0.06774,0.170764 -0.107692,0.350796 -0.08878,0.400072 0.05535,0.144232 0.355509,0.104386 0.611707,-0.0812 z m 3.493083,-10.957207 c 0.05797,-0.309019 -0.06427,-0.830274 -0.260591,-1.111214 -0.294197,-0.420998 -0.724069,-0.31235 -0.724069,0.183004 0,0.102445 0.04978,0.249871 0.110634,0.327613 0.06085,0.07774 0.193318,0.305529 0.294377,0.506191 0.101058,0.200661 0.217969,0.37709 0.259802,0.392062 0.141999,0.05082 0.27826,-0.07598 0.319847,-0.297656 z"
       id="path260" />
  </g>
</svg>
